HIERARCHY
ROOT Hips
{
	OFFSET 0.000000 0.000000 0.000000 
	CHANNELS 6 Xposition Yposition Zposition Zrotation Yrotation Xrotation
	JOINT LeftUpLeg
	{
		OFFSET 1.363060 -1.794630 0.839290 
		CHANNELS 3 Zrotation Yrotation Xrotation
		JOINT LeftLeg
		{
			OFFSET 2.448110 -6.726130 0.000000 
			CHANNELS 3 Zrotation Yrotation Xrotation
			JOINT LeftFoot
			{
				OFFSET 2.562200 -7.039590 0.000000 
				CHANNELS 3 Zrotation Yrotation Xrotation
				JOINT LeftToeBase
				{
					OFFSET 0.157640 -0.433110 2.322550 
					CHANNELS 3 Zrotation Yrotation Xrotation
					End Site
					{
						OFFSET 0.000000 0.000000 0.000000 
					}
				}
			}
		}
	}
	JOINT RightUpLeg
	{
		OFFSET -1.305520 -1.794630 0.839290 
		CHANNELS 3 Zrotation Yrotation Xrotation
		JOINT RightLeg
		{
			OFFSET -2.542530 -6.985550 0.000000 
			CHANNELS 3 Zrotation Yrotation Xrotation
			JOINT RightFoot
			{
				OFFSET -2.568260 -7.056230 0.000000 
				CHANNELS 3 Zrotation Yrotation Xrotation
				JOINT RightToeBase
				{
					OFFSET -0.164730 -0.452590 2.363150 
					CHANNELS 3 Zrotation Yrotation Xrotation
					End Site
					{
						OFFSET 0.000000 0.000000 0.000000 
					}
				}
			}
		}
	}
	JOINT Spine
	{
		OFFSET 0.028270 2.035590 -0.193380 
		CHANNELS 3 Zrotation Yrotation Xrotation
		JOINT Spine1
		{
			OFFSET 0.056720 2.048850 -0.042750 
			CHANNELS 3 Zrotation Yrotation Xrotation
			JOINT Neck1
			{
				OFFSET -0.054170 1.746240 0.172020 
				CHANNELS 3 Zrotation Yrotation Xrotation
				JOINT Head
				{
					OFFSET 0.104070 1.761360 -0.123970 
					CHANNELS 3 Zrotation Yrotation Xrotation
					End Site
					{
						OFFSET 0.000000 0.000000 0.000000 
					}
				}
			}
			JOINT LeftArm
			{
				OFFSET 3.362410 1.200890 -0.311210 
				CHANNELS 3 Zrotation Yrotation Xrotation
				JOINT LeftForeArm
				{
					OFFSET 4.983000 -0.000000 -0.000000 
					CHANNELS 3 Zrotation Yrotation Xrotation
					JOINT LeftHand
					{
						OFFSET 3.483560 -0.000000 -0.000000 
						CHANNELS 3 Zrotation Yrotation Xrotation
						JOINT LeftHandIndex1
						{
							OFFSET 0.715260 -0.000000 -0.000000 
							CHANNELS 3 Zrotation Yrotation Xrotation
							End Site
							{
								OFFSET 0.000000 0.000000 0.000000 
							}
						}
					}
				}
			}
			JOINT RightArm
			{
				OFFSET -3.136600 1.374050 -0.404650 
				CHANNELS 3 Zrotation Yrotation Xrotation
				JOINT RightForeArm
				{
					OFFSET -5.241900 -0.000000 -0.000000 
					CHANNELS 3 Zrotation Yrotation Xrotation
					JOINT RightHand
					{
						OFFSET -3.444170 -0.000000 -0.000000 
						CHANNELS 3 Zrotation Yrotation Xrotation
						JOINT RightHandIndex1
						{
							OFFSET -0.622530 -0.000000 -0.000000 
							CHANNELS 3 Zrotation Yrotation Xrotation
							End Site
							{
								OFFSET 0.000000 0.000000 0.000000 
							}
						}
					}
				}
			}
		}
	}
}
MOTION
Frames: 10
Frame Time: 0.041667
18.815094 18.016368 3.039420 2.429339 -79.249222 11.667937 -16.037510 -5.919485 -12.759168 0.831048 3.263551 9.347258 0.161946 -7.446065 -3.402217 0.864100 -5.927500 -16.574200 25.197817 4.487848 -21.274396 -3.235683 -8.821570 26.086447 1.028587 -9.651101 -12.662788 -0.335000 3.719400 -10.288500 1.684173 -0.756147 -0.799049 2.475768 -0.654056 -1.197766 10.647279 -6.059865 24.312283 4.830900 -2.610800 14.367900 -85.360725 -56.214205 65.726802 19.958978 -34.134722 -6.204035 0.774444 -1.202243 24.374593 -7.125000 0.000000 0.000000 68.940172 54.416630 56.920749 -30.840683 46.513560 -13.489925 1.272444 0.242793 5.223187 7.125000 0.000000 0.000000 
18.800605 18.013742 3.025417 2.367160 -79.334682 11.744713 -15.980732 -5.829867 -12.810294 0.836706 3.305406 9.464461 0.161798 -7.399087 -3.402239 0.894400 -6.027600 -16.864600 25.242124 4.573355 -21.186856 -3.232252 -8.814274 26.061432 1.006658 -9.547869 -12.740128 -0.345000 3.774100 -10.441900 1.774945 -0.693318 -0.705449 2.713468 -0.624457 -1.077209 10.268372 -5.928443 24.590342 4.708200 -2.595900 14.512600 -84.452935 -56.344272 66.122256 20.522321 -34.876703 -6.518254 0.828984 -1.159501 23.155730 -7.125000 0.000000 0.000000 68.015560 54.416749 56.866303 -31.653572 47.093693 -14.081259 1.239621 0.261843 4.691813 7.125000 0.000000 0.000000 
18.787186 18.010533 3.010928 2.307701 -79.334236 11.868422 -15.909460 -5.864208 -12.962478 0.846914 3.378290 9.667996 0.162708 -7.271645 -3.426118 0.965200 -6.255100 -17.526500 25.303558 4.710357 -21.146824 -3.227247 -8.803718 26.026738 1.037206 -9.702017 -12.710340 -0.351600 3.809600 -10.541700 1.769119 -0.705191 -0.676980 2.764450 -0.627577 -1.034043 10.041603 -5.847357 24.576701 4.565900 -2.557200 14.444700 -83.362974 -56.454764 66.375768 21.018171 -35.514997 -6.789751 0.868959 -1.115911 21.959831 -7.125000 0.000000 0.000000 67.652068 54.182912 57.061717 -32.493989 47.664964 -14.684252 1.220225 0.257492 4.475940 7.125000 0.000000 0.000000 
18.773475 18.008977 2.995467 2.204674 -79.362087 12.077230 -15.820338 -5.901122 -13.211073 0.863831 3.488788 9.974887 0.162451 -7.142198 -3.425426 0.842000 -5.853200 -16.359100 25.401774 4.759185 -21.157532 -3.214211 -8.771339 25.926523 1.053196 -9.764737 -12.629247 -0.336700 3.728700 -10.314600 1.691123 -0.734216 -0.668255 2.679841 -0.644538 -0.938892 10.154928 -5.837648 24.528619 4.564000 -2.520600 14.348800 -82.245415 -56.562137 66.101616 21.408194 -36.044842 -7.054166 0.887933 -1.095357 21.409243 -7.125000 0.000000 0.000000 67.225568 54.114573 57.249021 -33.408069 48.286250 -15.353964 1.201918 0.252946 3.950884 7.125000 0.000000 0.000000 
18.760348 18.011408 2.982340 1.414535 -79.397245 12.989144 -15.581975 -5.885467 -13.422872 0.873033 3.550133 10.136333 0.158534 -7.130041 -3.345525 0.687700 -5.301600 -14.770700 25.605623 4.988024 -21.149419 -3.208150 -8.749055 25.867530 1.082709 -9.901239 -12.582514 -0.334600 3.717600 -10.283400 1.666166 -0.632523 -0.636887 2.536929 -0.597690 -0.808875 10.168646 -5.925594 24.669772 4.542500 -2.548500 14.389500 -81.671461 -56.639706 66.408648 21.830113 -36.569705 -7.345873 0.900647 -1.076268 20.822220 -7.125000 0.000000 0.000000 66.530360 53.984226 57.008281 -34.289744 48.850410 -16.000174 1.176076 0.253727 3.608957 7.125000 0.000000 0.000000 
18.747513 18.012089 2.973199 0.321271 -79.348194 14.095657 -15.278760 -5.867065 -13.419612 0.871728 3.548203 10.119823 0.156779 -7.245589 -3.332546 0.770100 -5.603600 -15.638400 25.874928 5.034233 -21.116718 -3.208599 -8.745250 25.863772 1.090472 -9.932457 -12.589398 -0.334400 3.716400 -10.280100 1.739964 -0.556571 -0.556383 2.484732 -0.562595 -0.688385 10.078537 -5.956695 24.830434 4.526200 -2.585300 14.460200 -81.278626 -56.769119 66.770651 22.264691 -37.086927 -7.630778 0.918517 -1.050464 20.156849 -7.125000 0.000000 0.000000 66.142361 53.912783 56.844287 -34.783145 49.161260 -16.366057 1.165374 0.246283 3.884568 7.125000 0.000000 0.000000 
18.730398 18.011506 2.960461 0.543933 -79.214223 13.840004 -15.233211 -5.943849 -13.271561 0.864664 3.511188 10.016683 0.158756 -7.223286 -3.379368 0.788200 -5.667600 -15.823000 25.900531 4.875939 -21.092334 -3.212472 -8.759042 25.905011 1.048224 -9.754624 -12.795765 -0.294200 3.488000 -9.640400 1.888642 -0.682622 -0.452028 2.822402 -0.633946 -0.521419 10.161915 -5.788351 25.023276 4.675700 -2.555700 14.557000 -80.688607 -56.925175 66.281864 22.582059 -37.485313 -7.848519 0.930881 -1.037179 19.894163 -7.125000 0.000000 0.000000 65.832354 54.163861 56.920398 -35.083624 49.382579 -16.593254 1.186558 0.206160 4.574289 7.125000 0.000000 0.000000 
18.711631 18.010144 2.946070 1.865004 -79.061644 12.554439 -15.417094 -6.081276 -13.126615 0.854971 3.438834 9.825132 0.155741 -7.181825 -3.282855 0.693100 -5.322100 -14.829500 25.683415 4.835848 -21.102221 -3.219941 -8.786659 25.983334 1.034682 -9.749328 -13.033095 -0.277800 3.389900 -9.366100 1.963954 -0.930092 -0.429513 3.184548 -0.762130 -0.435376 10.306674 -5.536135 25.302155 4.853000 -2.481200 14.649200 -79.951712 -56.830781 65.390524 22.893262 -37.831220 -8.053971 0.934875 -1.028645 19.869225 -7.125000 0.000000 0.000000 65.797453 54.291589 57.386768 -35.552888 49.703288 -16.947478 1.202664 0.173023 4.940393 7.125000 0.000000 0.000000 
18.700060 18.008783 2.937221 2.640124 -79.030837 11.813201 -15.547852 -6.075049 -12.992824 0.845686 3.357608 9.608490 0.148675 -7.268473 -3.095214 0.693700 -5.324200 -14.835500 25.559077 4.807721 -21.140203 -3.227969 -8.811071 26.053523 1.039165 -9.795585 -13.100546 -0.289500 3.460100 -9.562300 1.900276 -1.027092 -0.460969 3.164678 -0.804058 -0.496707 10.137712 -5.435485 25.408097 4.770400 -2.453400 14.596500 -79.063984 -56.779132 64.882022 23.334276 -38.325964 -8.374729 0.955758 -1.005970 19.698872 -7.125000 0.000000 0.000000 65.793023 54.052669 57.729541 -36.304013 50.152210 -17.510991 1.189695 0.167682 4.888782 7.125000 0.000000 0.000000 
18.691308 18.012381 2.930025 2.509376 -79.101836 11.963666 -15.513493 -5.917299 -12.817929 0.836389 3.278539 9.389991 0.138174 -7.435491 -2.840761 0.527200 -4.653100 -12.921900 25.591228 4.960209 -21.089516 -3.232892 -8.822496 26.091476 1.049744 -9.867563 -13.176995 -0.275700 3.377000 -9.330200 1.848018 -0.905223 -0.512183 3.021513 -0.738294 -0.612905 10.064169 -5.570101 25.495240 4.705900 -2.526100 14.537200 -78.389066 -56.865378 64.963591 23.638851 -38.664803 -8.585481 0.959486 -0.988868 19.052778 -7.125000 0.000000 0.000000 65.163341 53.650286 57.444252 -37.168170 50.612072 -18.130150 1.169170 0.161185 4.603108 7.125000 0.000000 0.000000 
